<?xml version="1.0" standalone="no"?>
<svg viewBox="0 0 200 200" xmlns="http://www.w3.org/2000/svg">
  <path fill="#FA4D56" d="M39.4,-65.1C53.8,-59.9,70.1,-54.9,72.5,-44.1C75,-33.3,63.5,-16.6,62.8,-0.5C62,15.7,71.8,31.4,68,39.8C64.1,48.1,46.5,49.1,32.9,49.5C19.3,50,9.6,49.8,-1.2,51.9C-12,53.9,-24,58.2,-33,55C-41.9,51.9,-47.8,41.5,-57.1,31.1C-66.4,20.7,-79.1,10.3,-79,0C-78.9,-10.2,-66.1,-20.5,-58,-33C-50,-45.6,-46.7,-60.4,-37.8,-68.8C-29,-77.1,-14.5,-79.1,-1,-77.3C12.5,-75.6,25,-70.3,39.4,-65.1Z" transform="translate(100 100)" />
</svg>
