<?xml version="1.0" standalone="no"?>
<svg viewBox="0 0 200 200" xmlns="http://www.w3.org/2000/svg">
  <path fill="#FA4D56" d="M23.6,-42C29.4,-37.5,32,-28.8,43.9,-21.1C55.7,-13.4,76.7,-6.7,79.2,1.4C81.7,9.6,65.7,19.1,54.3,27.6C42.9,36.1,36.2,43.6,28,46.6C19.7,49.6,9.8,48.1,0,48.1C-9.9,48.1,-19.7,49.7,-30.1,47.9C-40.4,46.1,-51.2,40.9,-53.2,32.4C-55.3,23.8,-48.6,11.9,-45.6,1.8C-42.5,-8.4,-43.1,-16.8,-43.2,-29C-43.2,-41.2,-42.7,-57.2,-35.4,-60.8C-28.1,-64.4,-14.1,-55.7,-2.6,-51.2C8.9,-46.8,17.8,-46.5,23.6,-42Z" transform="translate(100 100)" />
</svg>
